Coordinates
version=1
nRows=24
nColumns=22
inDegrees=yes

Units are S.I. units (second, meters, Newtons, ...)
If the header above contains a line with 'inDegrees', this indicates whether rotational values are in degrees (yes) or radians (no).

endheader
time	pelvis_tilt	pelvis_list	pelvis_rotation	pelvis_tx	pelvis_ty	pelvis_tz	hip_flexion_r	hip_adduction_r	hip_rotation_r	knee_angle_r	ankle_angle_r	subtalar_angle_r	hip_flexion_l	hip_adduction_l	hip_rotation_l	knee_angle_l	ankle_angle_l	subtalar_angle_l	lumbar_extension	lumbar_bending	lumbar_rotation
      0.01000000	     -1.52479456	     -4.99816386	     -1.70165317	     -1.71872921	      1.01353179	     -0.03493093	      0.09689893	      1.92351116	     -5.74110540	     -9.50527439	      7.46334788	      2.77188355	     -2.25701244	     -8.89336820	    -10.74598507	     -9.45749119	     11.33387158	      0.00347140	     -2.23852329	      1.51909634	     -1.15496758
      0.02000000	     -1.51673954	     -4.99679033	     -1.68069342	     -1.71862131	      1.01352860	     -0.03498912	      0.08638119	      1.92051096	     -5.73879083	     -9.51807949	      7.46299117	      2.77181056	     -2.26431649	     -8.89163958	    -10.74574383	     -9.46241129	     11.33397127	      0.00353725	     -2.21697120	      1.52360715	     -1.14592248
      0.03000000	     -1.49640605	     -4.98764006	     -1.63164023	     -1.71850060	      1.01353123	     -0.03510006	      0.06890982	      1.90534779	     -5.80707621	     -9.54572032	      7.48932761	      2.77395161	     -2.28753153	     -8.87803683	    -10.68397442	     -9.45096463	     11.34780032	      0.00663742	     -2.20571946	      1.51686088	     -1.13817716
      0.04000000	     -1.48566954	     -4.98588274	     -1.60417467	     -1.71838115	      1.01352546	     -0.03517309	      0.05538698	      1.90149637	     -5.80401957	     -9.56043683	      7.48890941	      2.77392924	     -2.29578999	     -8.87600043	    -10.68313297	     -9.45801997	     11.34730565	      0.00670562	     -2.17906134	      1.52193389	     -1.12741197
      0.05000000	     -1.45890698	     -4.97476609	     -1.53674188	     -1.71827236	      1.01353276	     -0.03531393	      0.02893331	      1.88370201	     -5.88880339	     -9.58409783	      7.52066297	      2.77645839	     -2.31909709	     -8.86012446	    -10.59396252	     -9.44980500	     11.35958946	      0.00867845	     -2.17182708	      1.51279880	     -1.13099230
      0.06000000	     -1.44714357	     -4.97302820	     -1.50705285	     -1.71817220	      1.01352730	     -0.03539217	      0.01598125	      1.87974301	     -5.88469423	     -9.59933004	      7.52005620	      2.77638470	     -2.32707415	     -8.85787382	    -10.59361206	     -9.45644267	     11.35898991	      0.00862967	     -2.14501608	      1.51869370	     -1.11959026
      0.07000000	     -1.42064490	     -4.96514937	     -1.44090341	     -1.71809735	      1.01353385	     -0.03552659	     -0.00724910	      1.86597069	     -5.95886077	     -9.62501260	      7.55159559	      2.77727670	     -2.34800522	     -8.84615881	    -10.50490134	     -9.44977336	     11.36893880	      0.00623615	     -2.13872254	      1.51252179	     -1.11931121
      0.08000000	     -1.40877375	     -4.96359999	     -1.40931082	     -1.71803830	      1.01353138	     -0.03561482	     -0.01836212	      1.86146639	     -5.95458858	     -9.63908828	      7.55123355	      2.77710726	     -2.35349453	     -8.84354665	    -10.50461722	     -9.45443882	     11.36846941	      0.00605844	     -2.11515088	      1.51968259	     -1.10641664
      0.09000000	     -1.38761319	     -4.96110816	     -1.34502168	     -1.71801915	      1.01353576	     -0.03575313	     -0.03148004	      1.85338687	     -6.02169199	     -9.66642746	      7.58135089	      2.77585174	     -2.36469401	     -8.83744677	    -10.41624068	     -9.44981903	     11.37823290	     -0.00033139	     -2.10919026	      1.52122099	     -1.09760339
      0.10000000	     -1.37615023	     -4.95990460	     -1.31235834	     -1.71799702	      1.01353684	     -0.03584331	     -0.04108299	      1.84933252	     -6.01808645	     -9.67867074	      7.58113345	      2.77561769	     -2.36771550	     -8.83537754	    -10.41575649	     -9.45348797	     11.37761809	     -0.00065372	     -2.08819367	      1.52772600	     -1.08387849
      0.11000000	     -1.36547975	     -4.96349556	     -1.23518222	     -1.71802384	      1.01353063	     -0.03600181	     -0.04384997	      1.84813361	     -6.10485847	     -9.70016146	      7.60585069	      2.77256734	     -2.35671278	     -8.83752959	    -10.30771157	     -9.45874184	     11.38544805	     -0.01209585	     -2.07539628	      1.53512934	     -1.08327139
      0.12000000	     -1.35867925	     -4.96487833	     -1.18782800	     -1.71804771	      1.01352761	     -0.03612044	     -0.05133357	      1.84672569	     -6.13245216	     -9.70169676	      7.61014456	      2.77162430	     -2.34290902	     -8.83887995	    -10.27286208	     -9.47461707	     11.38358133	     -0.01665048	     -2.05629686	      1.54169154	     -1.05366213
      0.13000000	     -1.36873036	     -4.97496816	     -1.09904605	     -1.71810689	      1.01349358	     -0.03630563	     -0.03355167	      1.85304443	     -6.21812199	     -9.71889508	      7.61576953	      2.76761943	     -2.30097287	     -8.84975091	    -10.17033194	     -9.48493404	     11.39653363	     -0.03329090	     -2.02283385	      1.56023929	     -1.08768188
      0.14000000	     -1.38470837	     -4.98487008	     -1.02169925	     -1.71818117	      1.01345140	     -0.03647977	     -0.01295694	      1.85985090	     -6.28505770	     -9.72499195	      7.61582496	      2.76398049	     -2.24824530	     -8.86141648	    -10.08925505	     -9.50847323	     11.40630476	     -0.04929725	     -1.98633313	      1.57852221	     -1.09457508
      0.15000000	     -1.40742599	     -4.99839713	     -0.93908444	     -1.71827059	      1.01339757	     -0.03666430	      0.01418654	      1.87053872	     -6.35685115	     -9.72919244	      7.61554298	      2.75975934	     -2.18417272	     -8.87746372	    -10.00149131	     -9.53503407	     11.42070877	     -0.06466757	     -1.94558072	      1.60130517	     -1.10807214
      0.16000000	     -1.43428453	     -5.01226957	     -0.85475685	     -1.71837189	      1.01333553	     -0.03685372	      0.04508756	      1.88151919	     -6.43053826	     -9.73060785	      7.61306730	      2.75589253	     -2.11209785	     -8.89431167	     -9.91266449	     -9.56611889	     11.43636284	     -0.07931309	     -1.90439012	      1.62493642	     -1.12146751
      0.17000000	     -1.46395322	     -5.02559305	     -0.76844872	     -1.71847452	      1.01326645	     -0.03704358	      0.07865128	      1.89213013	     -6.50763972	     -9.73143485	      7.61057197	      2.75218414	     -2.03564428	     -8.91074314	     -9.82194919	     -9.59839821	     11.45307888	     -0.09403632	     -1.86277148	      1.64746000	     -1.13743825
      0.18000000	     -1.49138021	     -5.03441335	     -0.68651996	     -1.71856317	      1.01320443	     -0.03722612	      0.10825636	      1.89786552	     -6.58278466	     -9.73122810	      7.60838730	      2.74910619	     -1.96474539	     -8.92202918	     -9.73595576	     -9.62840892	     11.46720753	     -0.10771901	     -1.82516766	      1.66459032	     -1.14903790
      0.19000000	     -1.49531495	     -5.03384606	     -0.63807512	     -1.71860945	      1.01318243	     -0.03735568	      0.10667774	      1.89487745	     -6.61222199	     -9.72019695	      7.61115243	      2.74809354	     -1.93709145	     -8.92147780	     -9.70268586	     -9.64494918	     11.46751951	     -0.11061150	     -1.81413466	      1.66967618	     -1.11191422
      0.20000000	     -1.51518307	     -5.02486744	     -0.55154942	     -1.71864766	      1.01313933	     -0.03755283	      0.12472368	      1.88014102	     -6.70827199	     -9.71930450	      7.60806204	      2.74608988	     -1.88641822	     -8.90964495	     -9.59703437	     -9.65390169	     11.47827127	     -0.12060946	     -1.78707458	      1.67021284	     -1.14394650
      0.21000000	     -1.51444509	     -5.01667975	     -0.51523580	     -1.71861569	      1.01313613	     -0.03764179	      0.11302357	      1.87059224	     -6.72527814	     -9.70679250	      7.61260129	      2.74540967	     -1.87911483	     -8.90141680	     -9.58392202	     -9.65546619	     11.47511023	     -0.12174812	     -1.77816229	      1.66417710	     -1.10448864
      0.22000000	     -1.49389376	     -4.96601265	     -0.47509627	     -1.71851305	      1.01317025	     -0.03778181	      0.07706322	      1.81016568	     -6.77604098	     -9.69618596	      7.62191646	      2.74337499	     -1.91520049	     -8.83743799	     -9.53084956	     -9.61997178	     11.45284301	     -0.12234841	     -1.78369456	      1.61588069	     -1.08261979
      0.23000000	     -1.45570278	     -4.91769964	     -0.45527018	     -1.71837647	      1.01323662	     -0.03787556	      0.01683744	      1.75467095	     -6.79550942	     -9.67662881	      7.63906274	      2.74218623	     -1.98297376	     -8.77650575	     -9.51543903	     -9.57330214	     11.42019889	     -0.12030073	     -1.80944240	      1.56841814	     -1.03328651
      0.24000000	     -1.41229043	     -4.87280574	     -0.44142428	     -1.71823697	      1.01331220	     -0.03795813	     -0.04925506	      1.70326290	     -6.80168303	     -9.65599805	      7.65103497	      2.74183933	     -2.05944251	     -8.71921746	     -9.50976178	     -9.52440366	     11.39026481	     -0.11624593	     -1.84387478	      1.52297448	     -0.97555273
